<svg width="137" height="25" viewBox="0 0 137 25" fill="none" xmlns="http://www.w3.org/2000/svg">
<path d="M16.9626 9.01524H9.39276V0.96875H0V24.9379H9.39276V16.8898H16.9626V24.9379H26.3554V0.96875H16.9626V9.01524ZM85.5371 14.9162H84.7379L82.083 0.993317H74.7981L72.1432 14.9162H71.344L69.603 0.993317H60.0661L64.236 24.9625H76.9141L78.0524 15.8317H78.8271L79.967 24.9625H92.6452L96.815 0.993317H87.2765L85.5371 14.9162ZM106.733 0.993317H97.3407V24.9625H124.623V17.1436H106.733V0.993317ZM49.5204 12.4906L37.1124 12.4661V8.75319L49.5204 8.78267C50.9469 8.78267 51.5742 9.52295 51.5742 10.6367C51.5742 11.7504 50.9469 12.4906 49.5204 12.4906ZM60.9964 10.5531C60.9964 3.76283 57.0313 1.01952 50.2328 1.01952L27.7197 0.993317V24.9625H37.1124V19.4005L49.9478 19.4251L52.7468 24.9919H61.9414L57.8862 17.3123C59.6845 15.8874 60.9964 13.6633 60.9964 10.5531Z" fill="black"/>
<path d="M130.478 9.3731C128.046 9.3731 126.069 7.58627 126.069 5.39162C126.069 3.19698 128.046 1.41014 130.478 1.41014C132.912 1.41014 134.89 3.19698 134.89 5.39162C134.89 7.58627 132.912 9.3731 130.478 9.3731ZM130.478 0C127.25 0 124.623 2.41902 124.623 5.39162C124.623 8.3675 127.25 10.7849 130.478 10.7849C133.71 10.7849 136.335 8.3675 136.335 5.39162C136.335 2.41902 133.71 0 130.478 0Z" fill="black"/>
<path d="M133.408 7.81422L132.602 6.29435C132.95 6.0192 133.218 5.54096 133.218 4.91205C133.218 3.52975 132.406 2.93359 131.03 2.93359H128.082V7.87974H129.988V6.74638H130.978L131.541 7.87974H133.441L133.408 7.81422ZM129.988 4.58449H130.879C131.174 4.58449 131.299 4.70241 131.299 4.9317C131.299 5.15444 131.174 5.26581 130.879 5.26581H129.988V4.58449Z" fill="black"/>
</svg>
